<?xml version="1.0" standalone="no"?>
<!DOCTYPE svg PUBLIC "-//W3C//DTD SVG 20010904//EN"
 "http://www.w3.org/TR/2001/REC-SVG-20010904/DTD/svg10.dtd">
<svg version="1.0" xmlns="http://www.w3.org/2000/svg"
 width="386.000000pt" height="130.000000pt" viewBox="0 0 386.000000 130.000000"
 preserveAspectRatio="xMidYMid meet">

<g transform="translate(0.000000,130.000000) scale(0.100000,-0.100000)"
fill="#000000" stroke="none">
<path d="M2286 1285 c4 -9 1 -15 -7 -15 -22 0 3 -18 41 -28 19 -6 27 -11 17
-11 -10 -1 -16 -5 -13 -10 4 -5 -3 -7 -14 -4 -14 4 -20 1 -18 -8 2 -10 -6 -13
-26 -11 l-30 3 35 -31 c19 -18 44 -41 56 -52 18 -17 24 -18 36 -7 11 10 12 21
6 38 -12 31 -5 37 26 21 21 -11 29 -11 50 0 13 7 23 18 22 23 -1 6 4 11 10 12
16 0 38 32 47 68 l6 27 -124 0 c-107 0 -125 -2 -120 -15z"/>
<path d="M3632 1239 c-37 -14 -24 -45 17 -41 20 1 30 -2 26 -8 -3 -5 -1 -10 4
-10 6 0 11 -7 11 -15 0 -9 6 -12 15 -9 18 7 20 65 3 82 -14 14 -43 15 -76 1z"/>
<path d="M2137 1206 c-15 -22 -15 -25 -1 -30 9 -3 21 -3 27 1 6 4 8 0 4 -10
-3 -10 -2 -17 4 -17 5 0 12 6 15 14 3 9 13 12 27 8 20 -5 21 -4 7 14 -37 50
-60 55 -83 20z"/>
<path d="M3078 1225 c-5 -5 -417 -82 -468 -87 -41 -5 -85 -58 -74 -90 4 -12
-1 -24 -12 -32 -12 -9 -18 -30 -21 -70 -3 -58 8 -72 27 -36 7 14 7 20 0 20 -5
0 -10 5 -10 10 0 6 6 10 14 10 7 0 25 18 40 40 23 35 31 40 64 40 21 0 77 -13
124 -29 l86 -29 17 44 c20 53 73 101 121 110 20 4 63 4 95 0 63 -6 72 1 44 38
-8 11 -15 27 -15 37 0 16 -23 33 -32 24z"/>
<path d="M2176 1144 c-11 -8 -16 -14 -10 -14 13 0 39 18 34 24 -3 2 -14 -2
-24 -10z"/>
<path d="M2387 1154 c-16 -16 42 -47 64 -34 10 7 6 12 -15 20 -16 6 -32 13
-36 15 -4 2 -10 2 -13 -1z"/>
<path d="M3630 1150 c0 -5 5 -10 11 -10 5 0 7 5 4 10 -3 6 -8 10 -11 10 -2 0
-4 -4 -4 -10z"/>
<path d="M2217 1124 c3 -8 11 -13 18 -10 7 2 15 -4 18 -15 5 -17 9 -19 26 -9
28 14 26 24 -4 38 -38 17 -66 15 -58 -4z m63 -14 c0 -5 -4 -10 -10 -10 -5 0
-10 5 -10 10 0 6 5 10 10 10 6 0 10 -4 10 -10z"/>
<path d="M3080 1098 c0 -6 -9 -8 -20 -5 -11 3 -20 1 -20 -3 0 -4 -16 -3 -36 3
-28 9 -37 8 -44 -3 -5 -8 -6 -18 -3 -24 3 -5 1 -6 -6 -2 -6 4 -9 13 -5 19 3 7
-2 3 -11 -8 -9 -12 -11 -21 -5 -23 17 -6 11 -19 -11 -25 -12 -3 -18 -10 -14
-16 3 -6 -1 -11 -10 -11 -13 0 -14 -4 -4 -21 10 -19 9 -20 -11 -14 -16 5 -20
4 -15 -5 5 -8 24 -10 59 -7 30 3 41 3 26 -2 -23 -7 -21 -8 15 -13 22 -3 42 -1
43 4 2 4 8 8 13 8 4 0 6 -7 2 -16 -5 -14 -17 -16 -75 -10 -46 4 -67 3 -63 -4
3 -5 1 -10 -4 -10 -6 0 -11 -4 -11 -10 0 -5 7 -10 16 -10 20 0 45 -25 36 -35
-7 -8 20 -3 50 10 11 4 18 1 20 -12 3 -12 17 9 42 60 20 43 53 95 72 115 45
47 59 72 42 73 -7 0 -25 2 -40 4 -16 2 -28 -1 -28 -7z m-83 -34 c-3 -3 -12 -4
-19 -1 -8 3 -5 6 6 6 11 1 17 -2 13 -5z"/>
<path d="M2295 1076 c-10 -14 -22 -23 -28 -19 -6 3 -7 1 -3 -5 4 -7 11 -12 15
-12 11 0 44 50 38 57 -3 2 -13 -7 -22 -21z"/>
<path d="M2439 1080 c13 -11 27 -20 32 -20 17 0 9 9 -23 24 l-33 16 24 -20z"/>
<path d="M3160 1065 c-7 -8 -8 -15 -2 -15 5 0 15 7 22 15 7 8 8 15 2 15 -5 0
-15 -7 -22 -15z"/>
<path d="M3253 1073 c-13 -3 -23 -11 -23 -19 0 -8 -4 -14 -10 -14 -5 0 -7 6
-4 14 4 11 0 13 -16 9 -12 -3 -24 -12 -27 -20 -3 -8 -13 -11 -23 -8 -22 7 -63
-41 -57 -67 4 -12 -1 -18 -11 -19 -14 0 -13 -2 3 -9 18 -8 18 -9 -5 -10 -24
-2 -23 -3 5 -10 l30 -8 -32 -1 c-24 -1 -33 -7 -39 -23 -4 -13 -11 -26 -17 -29
-5 -4 2 -15 17 -24 30 -20 44 -14 110 49 21 19 46 38 56 41 10 3 21 12 24 20
6 16 46 21 46 7 0 -5 15 -7 33 -5 17 3 48 6 67 7 47 4 49 32 1 29 -32 -1 -33
0 -28 32 8 51 -27 71 -100 58z m17 -68 c0 -14 -1 -25 -2 -25 -24 -4 -68 -6
-55 -3 9 2 17 12 17 22 0 21 9 31 27 31 7 0 13 -11 13 -25z m-113 -61 c-3 -3
-12 -4 -19 -1 -8 3 -5 6 6 6 11 1 17 -2 13 -5z"/>
<path d="M360 895 l0 -85 190 0 190 0 0 85 0 85 -190 0 -190 0 0 -85z m88 50
c9 -8 11 -104 3 -109 -4 -3 -22 -8 -39 -11 l-32 -5 0 63 c0 35 3 66 6 70 6 5
55 -1 62 -8z m92 -6 c0 -5 -9 -9 -20 -9 -11 0 -20 -4 -20 -10 0 -5 9 -10 20
-10 11 0 20 -7 20 -15 0 -8 -9 -15 -20 -15 -11 0 -20 -7 -20 -15 0 -8 9 -15
20 -15 22 0 27 -16 8 -22 -7 -3 -23 -2 -35 0 -21 4 -23 10 -23 61 0 32 2 60 5
63 8 8 65 -3 65 -13z m74 5 c9 -8 16 -20 16 -25 0 -14 -28 -11 -33 4 -2 6 -8
9 -12 5 -5 -4 4 -17 18 -29 29 -22 34 -48 15 -67 -27 -27 -77 0 -63 35 6 17 7
17 21 -1 7 -11 17 -16 21 -12 4 3 -5 18 -20 32 -29 27 -33 44 -15 62 16 16 33
15 52 -4z m104 -2 c2 -7 -3 -12 -12 -12 -11 0 -16 -13 -18 -50 -4 -67 -22 -69
-26 -2 -2 37 -7 52 -18 52 -17 0 -19 17 -3 22 24 8 73 2 77 -10z"/>
<path d="M410 914 c0 -8 5 -12 10 -9 6 3 10 10 10 16 0 5 -4 9 -10 9 -5 0 -10
-7 -10 -16z"/>
<path d="M410 865 c0 -8 5 -15 10 -15 6 0 10 7 10 15 0 8 -4 15 -10 15 -5 0
-10 -7 -10 -15z"/>
<path d="M3480 955 c0 -8 15 -22 33 -31 35 -18 84 -54 73 -54 -4 0 -23 8 -44
19 -53 26 -220 51 -207 31 3 -6 2 -10 -4 -10 -5 0 -12 6 -14 13 -4 9 -8 8 -16
-3 -6 -8 -11 -12 -11 -8 0 4 -12 3 -26 -2 -18 -7 -30 -7 -39 0 -8 7 -19 2 -36
-16 -21 -22 -24 -35 -23 -97 1 -133 5 -160 30 -193 13 -17 21 -34 17 -37 -3
-4 -12 1 -19 11 -27 38 -27 -13 2 -82 5 -14 3 -17 -7 -14 -7 2 -16 15 -20 29
-6 20 -7 18 -8 -13 -2 -68 -20 -40 -23 35 l-3 72 -32 3 c-19 2 -33 -1 -33 -7
0 -6 5 -11 10 -11 6 0 10 -8 10 -19 0 -20 -35 -31 -94 -31 -24 1 -36 8 -54 37
-42 66 -20 81 125 86 67 2 73 4 73 23 0 26 -17 34 -74 34 -32 0 -50 6 -70 25
-14 13 -26 29 -26 35 0 5 -6 10 -13 10 -8 0 -35 14 -61 31 -26 17 -50 29 -53
25 -4 -4 -7 -28 -8 -54 0 -35 -4 -48 -16 -50 -9 -2 -21 -13 -27 -26 -9 -20 -7
-25 11 -33 14 -7 27 -28 36 -59 8 -27 21 -59 29 -71 7 -12 11 -27 7 -33 -4 -6
-4 -24 0 -40 6 -26 11 -30 41 -30 19 0 52 9 74 20 49 25 130 28 130 4 0 -8 -5
-12 -11 -8 -6 3 -15 1 -19 -6 -6 -9 -13 -9 -28 -1 -12 6 -23 7 -26 2 -3 -5
-20 -12 -38 -15 -18 -3 -44 -18 -57 -32 -22 -23 -23 -27 -11 -64 11 -35 40
-64 40 -41 0 5 10 7 22 3 l22 -5 -22 -8 c-15 -6 -22 -17 -22 -34 0 -22 -4 -25
-35 -25 -19 0 -35 -4 -35 -8 0 -5 40 -9 90 -9 72 0 88 3 79 13 -7 9 -8 23 -2
40 9 26 9 26 22 -17 7 -24 18 -47 25 -51 16 -11 94 -10 161 3 56 10 60 10 78
-12 11 -13 14 -25 8 -28 -6 -4 5 -23 25 -45 34 -37 41 -65 18 -73 -6 -2 -15 6
-19 19 -7 21 -8 20 -12 -11 -3 -19 -12 -41 -21 -48 -14 -10 31 -12 246 -13
l262 0 0 59 c0 38 -4 61 -12 64 -10 4 -10 6 0 6 6 1 12 5 12 11 0 5 -8 7 -17
3 -17 -6 -17 -5 0 14 15 17 17 44 17 241 0 127 -4 222 -9 222 -5 0 -10 -66
-10 -146 -1 -80 -6 -153 -11 -162 -5 -9 -12 -26 -16 -37 -5 -13 -10 9 -15 65
-7 85 -35 227 -66 330 -9 30 -16 59 -14 64 1 5 -8 38 -21 73 -20 57 -27 67
-60 80 -21 8 -38 19 -38 24 0 5 -9 9 -20 9 -11 0 -29 9 -40 20 -11 11 -20 17
-20 13 0 -4 -5 -2 -12 5 -16 16 -28 15 -28 -3z m255 -363 l4 -47 -17 53 c-13
39 -21 51 -32 46 -31 -13 -60 -16 -60 -6 0 14 13 22 43 24 l24 2 -18 31 c-32
52 -21 50 16 -4 25 -35 37 -66 40 -99z m-35 -21 c30 -31 81 -178 79 -227 -1
-20 -3 -23 -6 -9 -2 11 -6 30 -9 43 -3 15 -12 22 -29 22 -29 0 -29 2 -13 46
13 37 0 78 -40 125 -31 38 -17 37 18 0z m-660 -261 c0 -5 -5 -10 -11 -10 -5 0
-7 5 -4 10 3 6 8 10 11 10 2 0 4 -4 4 -10z m737 -182 c-3 -8 -6 -5 -6 6 -1 11
2 17 5 13 3 -3 4 -12 1 -19z m49 -75 c-7 -7 -26 7 -26 19 0 6 6 6 15 -2 9 -7
13 -15 11 -17z"/>
<path d="M1436 944 c-21 -20 -20 -23 10 -55 14 -15 23 -33 19 -39 -5 -8 -11
-6 -20 7 -15 20 -31 12 -22 -12 8 -18 63 -21 70 -2 7 18 -9 53 -27 60 -9 4
-16 14 -16 24 1 17 1 17 14 1 16 -22 26 -23 26 -3 0 24 -36 37 -54 19z"/>
<path d="M770 925 c0 -14 9 -30 20 -37 21 -13 28 -48 10 -48 -5 0 -10 7 -10
15 0 8 -7 15 -16 15 -11 0 -14 -5 -10 -16 3 -9 6 -18 6 -20 0 -2 13 -4 29 -4
44 0 53 37 16 66 -17 14 -25 26 -20 34 6 9 10 8 17 -4 11 -20 30 -12 21 9 -3
9 -18 15 -34 15 -24 0 -29 -4 -29 -25z"/>
<path d="M862 893 c3 -52 5 -58 27 -61 13 -2 27 0 31 5 14 13 16 106 3 110 -8
3 -13 -14 -15 -46 -4 -66 -22 -66 -26 -1 -2 27 -8 50 -13 50 -6 0 -9 -24 -7
-57z"/>
<path d="M953 891 c1 -42 6 -61 14 -61 7 0 13 11 13 25 0 16 6 25 15 25 9 0
15 -9 15 -25 0 -15 6 -25 15 -25 8 0 12 6 9 14 -3 7 -6 33 -7 57 -2 43 -3 44
-39 47 l-37 3 2 -60z m55 27 c-6 -18 -28 -21 -28 -4 0 9 7 16 16 16 9 0 14 -5
12 -12z"/>
<path d="M1054 936 c-3 -7 -4 -33 -2 -57 3 -43 4 -44 41 -46 37 -1 38 0 35 30
-2 21 -9 33 -20 35 -15 3 -17 -2 -11 -29 5 -25 3 -31 -8 -27 -15 5 -24 60 -14
85 5 14 7 14 24 -1 19 -18 33 -12 24 10 -7 18 -62 18 -69 0z"/>
<path d="M1154 936 c-3 -7 -4 -33 -2 -57 3 -41 5 -44 35 -47 30 -3 32 -1 39
33 9 49 -8 85 -41 85 -14 0 -28 -6 -31 -14z m44 -52 c-2 -22 -7 -39 -13 -39
-12 0 -19 60 -10 83 10 28 27 -3 23 -44z"/>
<path d="M1244 890 l0 -60 33 0 c18 0 33 5 33 10 0 6 -9 10 -20 10 -27 0 -25
26 3 35 l22 8 -22 4 c-28 5 -30 33 -3 33 11 0 20 5 20 10 0 6 -15 10 -33 10
l-32 0 -1 -60z"/>
<path d="M1330 891 c0 -34 4 -61 10 -61 6 0 10 15 10 33 l1 32 14 -32 c22 -51
35 -40 35 27 0 64 -19 85 -21 23 l-1 -38 -12 34 c-21 58 -36 50 -36 -18z"/>
<path d="M3664 925 c3 -19 26 -44 26 -28 0 18 -12 43 -20 43 -5 0 -7 -7 -6
-15z"/>
<path d="M2530 839 c0 -5 8 -13 18 -18 16 -10 15 -10 -3 -11 -11 0 -26 -4 -34
-9 -10 -6 -1 -8 25 -6 23 2 48 -2 61 -11 12 -7 34 -14 48 -14 14 0 28 -7 32
-15 9 -24 -7 -32 -22 -12 -13 18 -14 18 -24 -1 -7 -13 -7 -31 0 -56 12 -44 34
-43 34 1 0 20 5 30 15 30 51 1 60 4 60 23 0 11 5 19 11 17 6 -1 14 4 17 12 3
8 0 11 -7 7 -6 -4 -11 -3 -11 1 0 17 -67 43 -142 56 -43 7 -78 10 -78 6z"/>
<path d="M2950 829 c0 -5 5 -7 10 -4 6 3 10 8 10 11 0 2 -4 4 -10 4 -5 0 -10
-5 -10 -11z"/>
<path d="M2490 820 c0 -5 5 -10 10 -10 6 0 10 5 10 10 0 6 -4 10 -10 10 -5 0
-10 -4 -10 -10z"/>
<path d="M3735 780 c9 -16 18 -30 21 -30 2 0 -2 14 -11 30 -9 17 -18 30 -21
30 -2 0 2 -13 11 -30z"/>
<path d="M2380 783 c0 -2 18 -29 41 -59 22 -31 39 -58 36 -60 -3 -3 -15 9 -27
26 -12 17 -25 29 -27 26 -9 -9 68 -90 105 -109 34 -19 50 -17 37 2 -3 6 -13
11 -21 11 -9 0 -14 8 -13 18 1 9 -1 33 -5 52 -4 19 -8 49 -10 65 -3 29 -5 30
-60 31 -31 1 -56 0 -56 -3z"/>
<path d="M360 695 l0 -85 240 0 240 0 0 85 0 85 -240 0 -240 0 0 -85z m63 56
c22 -9 25 -15 22 -53 -1 -24 -3 -46 -4 -50 0 -5 -14 -8 -31 -8 l-30 0 0 60 c0
63 3 66 43 51z m307 -7 c0 -7 -10 -15 -22 -19 l-23 -8 23 -4 c25 -5 30 -23 7
-23 -8 0 -15 -7 -15 -15 0 -8 7 -15 15 -15 8 0 15 -4 15 -10 0 -5 -13 -10 -30
-10 -29 0 -30 1 -30 50 0 40 -3 48 -15 44 -10 -4 -15 -20 -15 -50 0 -24 -4
-44 -10 -44 -5 0 -10 20 -10 45 0 41 -2 45 -25 45 -23 0 -25 -4 -25 -45 0 -25
-4 -45 -10 -45 -5 0 -10 20 -10 44 0 47 -9 55 -47 48 -28 -5 -30 -22 -3 -22
11 0 20 -4 20 -10 0 -5 -9 -10 -20 -10 -11 0 -20 -5 -20 -11 0 -6 9 -13 20
-16 30 -8 24 -23 -10 -23 -30 0 -30 0 -30 58 l0 57 135 0 c94 0 135 -3 135
-11z m80 -28 c0 -17 3 -41 6 -53 5 -17 2 -23 -10 -23 -10 0 -16 9 -16 25 0 14
-4 25 -10 25 -5 0 -10 -11 -10 -25 0 -16 -6 -25 -15 -25 -11 0 -15 13 -15 54
0 57 7 66 47 58 18 -3 23 -11 23 -36z"/>
<path d="M406 675 c4 -8 8 -15 10 -15 2 0 4 7 4 15 0 8 -4 15 -10 15 -5 0 -7
-7 -4 -15z"/>
<path d="M770 720 c0 -5 5 -10 10 -10 6 0 10 5 10 10 0 6 -4 10 -10 10 -5 0
-10 -4 -10 -10z"/>
<path d="M2555 770 c-3 -5 -1 -10 4 -10 6 0 11 5 11 10 0 6 -2 10 -4 10 -3 0
-8 -4 -11 -10z"/>
<path d="M860 701 c0 -27 5 -53 10 -56 6 -4 10 5 10 19 0 16 6 26 15 26 8 0
15 -9 15 -19 0 -11 4 -23 10 -26 6 -4 9 14 7 47 -2 52 -3 53 -35 56 l-32 3 0
-50z m50 18 c0 -5 -7 -9 -15 -9 -15 0 -20 12 -9 23 8 8 24 -1 24 -14z"/>
<path d="M950 695 c0 -52 1 -55 24 -55 14 0 28 5 31 10 3 6 -3 10 -14 10 -12
0 -21 7 -21 15 0 8 7 15 15 15 8 0 15 5 15 10 0 6 -7 10 -15 10 -21 0 -19 28
3 33 10 3 6 5 -10 6 -27 1 -28 0 -28 -54z"/>
<path d="M1023 734 c-3 -8 4 -25 17 -39 13 -14 20 -28 15 -32 -4 -5 -10 -2
-12 5 -6 17 -23 15 -23 -2 0 -16 34 -31 50 -21 16 10 11 37 -12 62 -12 13 -18
26 -14 30 4 4 11 1 16 -7 5 -8 12 -11 15 -8 11 11 -5 28 -26 28 -11 0 -22 -7
-26 -16z"/>
<path d="M1100 700 c0 -54 17 -73 49 -53 18 12 29 103 12 103 -6 0 -11 -20
-11 -45 0 -33 -4 -45 -15 -45 -11 0 -15 12 -15 45 0 25 -4 45 -10 45 -5 0 -10
-23 -10 -50z"/>
<path d="M1190 695 c0 -52 1 -55 25 -55 14 0 25 5 25 10 0 6 -7 10 -15 10 -14
0 -21 36 -16 78 1 6 -3 12 -9 12 -6 0 -10 -23 -10 -55z"/>
<path d="M1258 743 c7 -3 12 -24 12 -54 0 -27 5 -49 10 -49 6 0 10 22 10 49 0
30 5 51 13 54 6 3 -4 5 -23 5 -19 0 -29 -2 -22 -5z"/>
<path d="M1326 735 c-3 -9 6 -25 21 -40 28 -25 26 -48 -2 -25 -21 18 -33 3
-13 -17 19 -18 45 -12 55 13 4 11 -1 23 -15 35 -12 9 -22 23 -22 30 0 10 3 10
12 1 17 -17 29 -15 22 3 -8 19 -50 19 -58 0z"/>
<path d="M2743 699 c-18 -19 -17 -69 2 -69 8 0 15 5 15 11 0 5 -4 7 -10 4 -5
-3 -10 -2 -10 4 0 5 5 11 11 13 6 2 9 14 7 26 -2 19 -5 21 -15 11z"/>
<path d="M2262 590 c0 -19 2 -27 5 -17 2 9 2 25 0 35 -3 9 -5 1 -5 -18z"/>
<path d="M360 505 l0 -85 465 0 465 0 0 85 0 85 -465 0 -465 0 0 -85z m97 10
c16 -65 16 -75 -2 -75 -8 0 -15 7 -15 15 0 8 -5 15 -10 15 -6 0 -13 -7 -16
-15 -9 -22 -37 -19 -30 3 3 9 8 31 11 47 13 58 17 66 33 63 10 -2 21 -22 29
-53z m93 40 c0 -8 -9 -15 -20 -15 -11 0 -20 -4 -20 -10 0 -5 9 -10 20 -10 11
0 20 -5 20 -11 0 -6 -9 -13 -20 -16 -13 -3 -20 -14 -20 -29 0 -15 -6 -24 -15
-24 -12 0 -15 14 -15 65 l0 65 35 0 c24 0 35 -5 35 -15z m80 0 c0 -8 -9 -15
-20 -15 -11 0 -20 -4 -20 -10 0 -5 9 -10 20 -10 11 0 20 -7 20 -15 0 -8 -9
-15 -20 -15 -15 0 -20 -7 -20 -25 0 -16 -6 -25 -15 -25 -12 0 -15 14 -15 65
l0 65 35 0 c24 0 35 -5 35 -15z m79 1 c7 -8 11 -36 9 -63 -3 -48 -3 -48 -38
-48 -35 0 -35 0 -38 48 -3 52 9 77 38 77 10 0 23 -6 29 -14z m99 2 c5 -7 10
-37 11 -65 0 -41 -3 -53 -14 -53 -9 0 -15 10 -15 25 0 14 -4 25 -10 25 -5 0
-10 -11 -10 -25 0 -16 -6 -25 -15 -25 -12 0 -15 14 -15 65 0 65 0 65 29 65 16
0 33 -6 39 -12z m88 4 c18 -11 26 -66 15 -95 -9 -22 -17 -27 -46 -27 l-35 0 0
65 c0 64 0 65 28 65 15 0 32 -4 38 -8z m101 -47 c16 -65 16 -75 -2 -75 -8 0
-15 7 -15 15 0 8 -5 15 -10 15 -6 0 -13 -7 -16 -15 -9 -22 -37 -19 -30 3 3 9
10 39 17 65 15 63 38 60 56 -8z m88 45 c8 -14 14 -91 8 -107 -3 -7 -20 -13
-39 -13 l-34 0 0 65 0 65 29 0 c17 0 33 -5 36 -10z m55 -45 c0 -48 2 -55 20
-55 11 0 20 -4 20 -10 0 -5 -16 -10 -35 -10 l-35 0 0 65 c0 51 3 65 15 65 12
0 15 -13 15 -55z m120 40 c0 -8 -9 -15 -20 -15 -11 0 -20 -4 -20 -10 0 -5 9
-10 20 -10 11 0 20 -5 20 -11 0 -6 -9 -13 -20 -16 -11 -3 -20 -12 -20 -19 0
-8 9 -14 20 -14 11 0 20 -4 20 -10 0 -5 -16 -10 -35 -10 l-35 0 0 65 0 65 35
0 c24 0 35 -5 35 -15z"/>
<path d="M421 504 c0 -11 3 -14 6 -6 3 7 2 16 -1 19 -3 4 -6 -2 -5 -13z"/>
<path d="M670 500 c0 -40 15 -54 26 -25 8 20 -4 65 -16 65 -6 0 -10 -18 -10
-40z"/>
<path d="M770 524 c0 -8 5 -12 10 -9 6 3 10 10 10 16 0 5 -4 9 -10 9 -5 0 -10
-7 -10 -16z"/>
<path d="M860 500 c0 -22 4 -40 10 -40 12 0 24 45 16 65 -11 29 -26 15 -26
-25z"/>
<path d="M1050 530 c0 -5 5 -10 10 -10 6 0 10 5 10 10 0 6 -4 10 -10 10 -5 0
-10 -4 -10 -10z"/>
<path d="M1050 475 c0 -8 5 -15 10 -15 6 0 10 7 10 15 0 8 -4 15 -10 15 -5 0
-10 -7 -10 -15z"/>
<path d="M1325 554 c-11 -11 -15 -30 -13 -57 3 -46 27 -69 55 -51 23 14 28 34
9 34 -9 0 -16 -4 -16 -10 0 -5 -4 -10 -10 -10 -5 0 -10 20 -10 45 0 48 6 55
25 28 8 -10 14 -12 19 -5 6 11 -19 42 -34 42 -5 0 -16 -7 -25 -16z"/>
<path d="M1416 554 c-19 -19 -21 -74 -3 -98 8 -11 23 -17 38 -14 21 3 24 9 27
53 3 38 -1 52 -14 62 -23 17 -29 16 -48 -3z m44 -55 c0 -28 -4 -39 -15 -39
-11 0 -15 11 -15 38 0 21 3 42 6 45 14 13 24 -6 24 -44z"/>
<path d="M1512 558 c-18 -18 -15 -32 13 -58 14 -13 25 -27 25 -32 0 -13 -28
-9 -33 5 -2 6 -8 9 -12 5 -16 -15 5 -39 32 -36 40 4 44 48 8 72 -14 9 -23 21
-19 27 4 6 13 4 25 -7 15 -14 19 -14 19 -3 0 18 -19 39 -35 39 -6 0 -16 -5
-23 -12z"/>
<path d="M1593 546 c12 -9 17 -27 17 -60 0 -25 5 -46 10 -46 6 0 10 23 10 50
0 38 4 50 15 50 8 0 15 5 15 10 0 6 -19 10 -42 10 -38 -1 -41 -2 -25 -14z"/>
<path d="M3805 510 c2 -14 5 -63 6 -110 l2 -85 7 75 c5 54 3 85 -7 110 -8 20
-11 24 -8 10z"/>
<path d="M2269 475 c0 0 -2 -8 -4 -18 -3 -14 1 -16 16 -12 13 5 19 2 19 -10 0
-13 7 -15 34 -10 19 4 55 0 87 -9 l54 -16 -24 20 c-13 11 -31 20 -40 20 -9 0
-27 7 -40 17 -19 13 -28 14 -42 5 -14 -9 -17 -9 -14 1 3 7 -4 12 -20 12 -14 0
-25 0 -26 0z"/>
<path d="M2228 453 c7 -3 16 -2 19 1 4 3 -2 6 -13 5 -11 0 -14 -3 -6 -6z"/>
<path d="M2846 433 c-3 -4 -32 -7 -64 -7 -51 -1 -57 -3 -54 -20 2 -11 17 -32
33 -47 23 -21 38 -27 63 -25 45 4 56 13 56 44 -1 29 -23 66 -34 55z"/>
<path d="M2641 404 c0 -11 3 -14 6 -6 3 7 2 16 -1 19 -3 4 -6 -2 -5 -13z"/>
<path d="M2363 390 c1 -15 8 -19 34 -18 32 1 32 2 17 20 -23 24 -53 24 -51 -2z"/>
<path d="M2696 377 c3 -10 9 -15 12 -12 3 3 0 11 -7 18 -10 9 -11 8 -5 -6z"/>
<path d="M523 343 c1 -14 7 -21 18 -20 9 1 15 7 12 14 -3 7 -9 11 -13 8 -5 -3
-10 1 -13 7 -3 7 -4 3 -4 -9z"/>
<path d="M600 338 c0 -12 3 -17 8 -12 4 5 11 12 15 15 5 3 2 9 -7 12 -12 5
-16 0 -16 -15z"/>
<path d="M873 342 c0 -12 5 -22 9 -22 11 0 10 12 -2 30 -7 12 -9 10 -7 -8z"/>
<path d="M927 353 c-10 -9 -9 -33 1 -33 4 0 8 9 8 20 0 23 0 22 -9 13z"/>
<path d="M950 341 c0 -25 6 -27 13 -6 4 8 2 17 -3 20 -6 4 -10 -3 -10 -14z"/>
<path d="M1190 346 c0 -8 5 -18 10 -21 6 -3 10 1 10 9 0 8 -4 18 -10 21 -5 3
-10 -1 -10 -9z"/>
<path d="M1276 344 c-20 -19 -20 -21 -2 -21 8 0 17 9 19 19 6 22 3 23 -17 2z"/>
<path d="M361 337 c-1 -22 30 -20 37 3 4 13 3 13 -10 2 -13 -10 -17 -10 -21 0
-3 8 -6 6 -6 -5z"/>
<path d="M410 335 c0 -8 2 -15 4 -15 2 0 6 7 10 15 3 8 1 15 -4 15 -6 0 -10
-7 -10 -15z"/>
<path d="M437 337 c-4 -10 1 -14 16 -13 20 1 38 26 18 26 -6 0 -11 -6 -11 -12
0 -10 -2 -10 -9 0 -7 11 -9 11 -14 -1z"/>
<path d="M570 335 c0 -8 4 -15 10 -15 5 0 7 7 4 15 -4 8 -8 15 -10 15 -2 0 -4
-7 -4 -15z"/>
<path d="M680 340 c0 -5 5 -10 10 -10 6 0 10 5 10 10 0 6 -4 10 -10 10 -5 0
-10 -4 -10 -10z"/>
<path d="M740 339 c0 -6 24 -19 36 -19 2 0 4 6 4 14 0 9 -9 14 -20 13 -11 -1
-20 -4 -20 -8z"/>
<path d="M810 337 c0 -7 12 -13 28 -14 15 0 19 1 10 4 -10 2 -18 9 -18 14 0 5
-4 9 -10 9 -5 0 -10 -6 -10 -13z"/>
<path d="M1030 340 c0 -5 7 -10 15 -10 8 0 15 5 15 10 0 6 -7 10 -15 10 -8 0
-15 -4 -15 -10z"/>
<path d="M1107 336 c-15 -12 -12 -14 27 -14 33 -1 44 2 40 12 -3 7 -11 13 -19
13 -8 0 -12 -4 -9 -9 3 -4 1 -8 -5 -8 -5 0 -11 4 -13 9 -1 5 -11 4 -21 -3z"/>
<path d="M1233 335 c0 -8 4 -15 9 -15 4 0 8 4 8 9 0 6 -4 12 -8 15 -5 3 -9 -1
-9 -9z"/>
<path d="M1307 337 c-3 -8 1 -14 8 -14 7 0 11 6 8 14 -3 7 -6 13 -8 13 -2 0
-5 -6 -8 -13z"/>
<path d="M1341 338 c-1 -10 6 -18 14 -18 8 0 15 8 15 18 0 13 -2 14 -9 3 -7
-11 -9 -11 -14 0 -4 10 -6 9 -6 -3z"/>
<path d="M1380 333 c0 -10 4 -14 8 -8 4 6 11 13 16 18 5 4 2 7 -7 7 -10 0 -17
-8 -17 -17z"/>
<path d="M2242 338 c-16 -16 -15 -28 2 -28 19 0 27 13 17 28 -5 9 -10 9 -19 0z"/>
<path d="M2292 328 c-18 -18 -14 -28 11 -28 16 0 23 6 24 20 2 22 -17 26 -35
8z"/>
<path d="M2490 336 c0 -2 18 -22 40 -43 29 -30 50 -42 80 -46 43 -6 52 5 20
25 -23 14 -26 34 -7 42 6 3 2 3 -10 0 -14 -3 -23 -1 -23 6 0 8 -11 11 -30 8
-16 -3 -30 -1 -30 4 0 4 -9 8 -20 8 -11 0 -20 -2 -20 -4z"/>
<path d="M2910 300 c0 -5 5 -10 11 -10 5 0 7 5 4 10 -3 6 -8 10 -11 10 -2 0
-4 -4 -4 -10z"/>
<path d="M2212 264 c-10 -12 -10 -14 2 -14 17 0 30 16 19 23 -5 3 -14 -1 -21
-9z"/>
<path d="M2618 223 c12 -2 30 -2 40 0 9 3 -1 5 -23 4 -22 0 -30 -2 -17 -4z"/>
<path d="M2175 210 c11 -4 83 -13 160 -19 76 -7 141 -14 143 -16 2 -2 -6 -6
-18 -10 -12 -4 -30 -15 -40 -25 -12 -12 -27 -16 -45 -12 -25 4 -26 3 -14 -16
24 -39 53 -35 107 14 52 49 59 54 64 54 12 0 47 -39 81 -90 33 -49 35 -56 20
-62 -17 -6 -17 -7 0 -7 9 -1 17 -5 17 -11 0 -12 289 -12 335 0 24 6 17 8 -33
9 -138 2 -205 30 -347 141 l-58 45 -96 2 c-53 1 -141 4 -196 7 -55 2 -91 0
-80 -4z"/>
<path d="M3066 181 c9 -9 110 -60 196 -99 56 -25 74 -14 20 13 -50 24 -214 95
-221 95 -3 0 -1 -4 5 -9z"/>
<path d="M3070 142 c0 -15 8 -19 36 -20 42 -2 41 -1 -3 22 -31 16 -33 16 -33
-2z"/>
<path d="M3340 118 c0 -19 2 -20 10 -8 13 19 13 30 0 30 -5 0 -10 -10 -10 -22z"/>
<path d="M2124 65 c-4 -8 -15 -15 -25 -15 -10 0 -19 -7 -19 -15 0 -8 9 -15 20
-15 11 0 20 -4 20 -10 0 -6 50 -10 133 -9 85 1 119 4 95 9 -21 4 -46 14 -55
22 -14 12 -132 48 -158 48 -3 0 -8 -7 -11 -15z"/>
<path d="M3198 53 c7 -3 16 -2 19 1 4 3 -2 6 -13 5 -11 0 -14 -3 -6 -6z"/>
<path d="M3337 53 c-9 -2 -15 -9 -12 -14 9 -14 22 -11 29 6 3 8 4 14 3 14 -1
-1 -10 -3 -20 -6z"/>
<path d="M3269 20 l-24 -19 26 -1 c18 0 28 6 32 20 7 25 -4 25 -34 0z"/>
<path d="M3173 3 c9 -2 25 -2 35 0 9 3 1 5 -18 5 -19 0 -27 -2 -17 -5z"/>
</g>
</svg>
